<svg width="23" height="24" viewBox="0 0 23 24" fill="none" xmlns="http://www.w3.org/2000/svg">
<path d="M21.731 0H1.26903C0.568165 0 0 0.592868 0 1.32421V22.6758C0 23.4071 0.568165 24 1.26903 24H21.731C22.4318 24 23 23.4071 23 22.6758V1.32421C23 0.592868 22.4318 0 21.731 0Z" fill="#3D5A98"/>
<path d="M16.1394 24V14.877H19.3822L19.8672 11.3218H16.1394V9.0525C16.1394 8.02336 16.443 7.32067 18.0054 7.32067H20V4.13569C19.0341 4.04083 18.0635 3.99564 17.0924 4.00033C14.2206 4.00033 12.2429 5.65254 12.2429 8.70016V11.3218H9V14.877H12.2429V24H16.1394Z" fill="white"/>
</svg>
