<svg width="43" height="42" viewBox="0 0 43 42" fill="none" xmlns="http://www.w3.org/2000/svg">
<rect x="0.666504" width="42" height="42" rx="6" fill="#E5F4F0"/>
<path d="M14.7194 28.1929C13.7643 27.2704 13.0025 26.167 12.4784 24.9469C11.9543 23.7269 11.6784 22.4147 11.6669 21.0869C11.6553 19.7591 11.9084 18.4423 12.4112 17.2133C12.914 15.9844 13.6565 14.8679 14.5954 13.9289C15.5344 12.99 16.6509 12.2475 17.8798 11.7447C19.1088 11.2419 20.4256 10.9888 21.7534 11.0004C23.0812 11.0119 24.3934 11.2878 25.6134 11.8119C26.8335 12.336 27.9369 13.0978 28.8594 14.0529C30.681 15.9389 31.6889 18.4649 31.6661 21.0869C31.6433 23.7089 30.5917 26.217 28.7376 28.0711C26.8835 29.9251 24.3754 30.9768 21.7534 30.9996C19.1314 31.0224 16.6054 30.0145 14.7194 28.1929ZM20.7894 16.1229V22.1229H22.7894V16.1229H20.7894ZM20.7894 24.1229V26.1229H22.7894V24.1229H20.7894Z" fill="#004731"/>
</svg>
