<svg width="84" height="70" viewBox="0 0 84 70" fill="none" xmlns="http://www.w3.org/2000/svg">
<path d="M65.0562 0.000244141C44.2935 10.0637 42.1761 38.3204 42.0057 46.4922H41.9924C41.8213 38.3204 39.7068 10.0645 18.9426 0.000244141C19.1646 0.0474456 30.3624 2.48938 37.4065 9.64556C39.9303 12.2092 44.0686 12.2092 46.5924 9.64556C53.6364 2.48938 64.835 0.0474456 65.0562 0.000244141Z" fill="#F4F4F4"/>
<path d="M64.6357 22.7139C53.8413 23.1283 58.3984 8.82409 64.6357 6.33643C64.6357 6.33643 50.9627 7.37264 45.4453 45.9318C45.4453 45.9318 58.1587 23.5428 83.8267 26.0305C83.8267 26.0305 75.4308 22.2994 64.6357 22.7139Z" fill="#F4F4F4"/>
<path d="M65.5625 20.4216C67.8017 20.3205 69.535 18.4233 69.4339 16.184C69.3329 13.9448 67.4356 12.2115 65.1964 12.3126C62.9571 12.4137 61.2238 14.3109 61.3249 16.5501C61.426 18.7894 63.3232 20.5227 65.5625 20.4216Z" fill="#F4F4F4"/>
<path d="M19.3637 6.33643C25.6009 8.82409 30.1581 23.1283 19.3637 22.7139C8.5693 22.2994 0.17334 26.0305 0.17334 26.0305C25.8406 23.5428 38.5548 45.9318 38.5548 45.9318C33.0359 7.37338 19.3637 6.33643 19.3637 6.33643Z" fill="#F4F4F4"/>
<path d="M21.8209 18.8647C23.2003 17.0979 22.8863 14.5475 21.1196 13.1681C19.3528 11.7886 16.8024 12.1026 15.4229 13.8694C14.0435 15.6361 14.3575 18.1866 16.1243 19.566C17.891 20.9454 20.4415 20.6314 21.8209 18.8647Z" fill="#F4F4F4"/>
<path d="M42.9309 8.83953C45.1123 8.32443 46.4631 6.13847 45.948 3.95705C45.4329 1.77562 43.247 0.424799 41.0655 0.939895C38.8841 1.45499 37.5333 3.64095 38.0484 5.82237C38.5635 8.0038 40.7494 9.35463 42.9309 8.83953Z" fill="#F4F4F4"/>
<path d="M40.4045 69.926C40.4245 69.9503 40.4488 69.9754 40.4731 69.9997C32.1797 63.4822 16.5715 62.6651 14.825 62.5965C14.7218 62.5913 14.6377 62.5323 14.5935 62.4394C9.91536 51.9024 2.93544 45.7146 0.942657 44.0913C0.756064 43.9386 0.854155 43.6384 1.09532 43.6289C2.13302 43.5898 4.26298 43.5455 7.08696 43.6783C9.65501 47.0134 13.0491 52.3161 15.6562 59.577C15.9616 60.423 16.7382 60.9983 17.6335 61.0477C19.2915 61.1303 34.039 62.1097 40.4045 69.926Z" fill="#F4F4F4"/>
<path d="M83.0576 44.0906C81.0655 45.7138 74.0849 51.9017 69.4023 62.4387C69.3633 62.5323 69.2747 62.5913 69.1759 62.5957C67.425 62.6643 51.8161 63.4815 43.5278 69.999C43.5522 69.9747 43.5773 69.9496 43.5964 69.9252C49.962 62.109 64.7087 61.1295 66.3667 61.0462C67.2621 61.002 68.0342 60.4215 68.3396 59.5756C70.9467 52.3147 74.3408 47.0119 76.9088 43.6768C79.7321 43.5441 81.8672 43.5883 82.9049 43.6274C83.1461 43.6385 83.2397 43.9386 83.0576 44.0906Z" fill="#F4F4F4"/>
<path d="M78.7638 38.537C78.016 39.2797 76.3485 41.0505 74.3513 43.8302C71.857 47.2981 68.8471 52.3405 66.4907 58.9118C66.4561 59.0099 66.3676 59.0741 66.2695 59.0792C64.5083 59.1729 48.9738 60.2054 42.0677 68.6862C42.0529 68.7061 42.0286 68.7157 41.9991 68.7157C41.9747 68.7157 41.9497 68.7061 41.9305 68.6862C35.0288 60.2106 19.5091 59.1729 17.7339 59.0792C17.6358 59.0741 17.5473 59.0107 17.5126 58.9118C15.1562 52.3398 12.1456 47.2981 9.65208 43.8302C7.65487 41.0512 5.98217 39.2804 5.23949 38.537C5.08239 38.3799 5.18565 38.1093 5.41133 38.0989C5.86859 38.0746 6.58178 38.0547 7.5022 38.0547C14.1281 38.0547 31.468 39.2841 41.7734 51.3758C41.8324 51.4496 41.9157 51.4842 41.9998 51.4842C42.0832 51.4842 42.1672 51.4496 42.2262 51.3758C52.5368 39.2797 69.8767 38.0547 76.4974 38.0547C77.4171 38.0547 78.1303 38.0746 78.5928 38.0989C78.8125 38.1093 78.9209 38.3799 78.7638 38.537Z" fill="#F4F4F4"/>
</svg>
