<svg width="43" height="42" viewBox="0 0 43 42" fill="none" xmlns="http://www.w3.org/2000/svg">
<rect x="0.666504" width="42" height="42" rx="6" fill="#E5F4F0"/>
<path d="M22.1665 9C17.474 9 13.6665 12.4559 13.6665 16.7143C13.6665 23.5714 22.1665 33 22.1665 33C22.1665 33 30.6665 23.5714 30.6665 16.7143C30.6665 12.4559 26.859 9 22.1665 9ZM22.1665 21C21.494 21 20.8367 20.7989 20.2776 20.4222C19.7184 20.0454 19.2827 19.51 19.0253 18.8835C18.768 18.257 18.7006 17.5676 18.8318 16.9025C18.963 16.2375 19.2868 15.6266 19.7623 15.1471C20.2378 14.6676 20.8437 14.341 21.5032 14.2087C22.1627 14.0764 22.8464 14.1443 23.4676 14.4038C24.0889 14.6633 24.6199 15.1028 24.9935 15.6666C25.3671 16.2304 25.5665 16.8933 25.5665 17.5714C25.5655 18.4804 25.207 19.3519 24.5696 19.9947C23.9322 20.6375 23.0679 20.999 22.1665 21Z" fill="#004731"/>
</svg>
