<svg width="43" height="42" viewBox="0 0 43 42" fill="none" xmlns="http://www.w3.org/2000/svg">
<rect x="0.666504" width="42" height="42" rx="6" fill="#E5F4F0"/>
<path d="M25.9209 23.5476L25.4406 24.0273C25.4406 24.0273 24.2974 25.1666 21.1783 22.0557C18.0591 18.9449 19.2023 17.8056 19.2023 17.8056L19.5042 17.5027C20.2505 16.7594 20.3212 15.5651 19.6699 14.6926L18.3399 12.9106C17.5335 11.8306 15.9766 11.6876 15.0529 12.6088L13.3957 14.2606C12.9387 14.718 12.6326 15.3088 12.6695 15.9653C12.7645 17.6457 13.5224 21.2595 17.7488 25.4757C22.2317 29.9461 26.4381 30.124 28.1576 29.9631C28.7022 29.9122 29.1751 29.6348 29.5562 29.2536L31.0551 27.7586C32.0684 26.7495 31.7834 25.0183 30.4872 24.3121L28.4711 23.212C27.6203 22.7492 26.5859 22.8848 25.9209 23.5476Z" fill="#004731"/>
</svg>
