<svg width="28" height="19" viewBox="0 0 28 19" fill="none" xmlns="http://www.w3.org/2000/svg">
<path d="M26.717 3.3187C26.5644 2.77389 26.2667 2.2772 25.8535 1.8781C25.4404 1.479 24.9262 1.19141 24.3621 1.04396C22.2972 0.5 13.9866 0.5 13.9866 0.5C13.9866 0.5 5.67565 0.516465 3.61073 1.06043C3.04669 1.20788 2.53248 1.49549 2.11932 1.89461C1.70615 2.29373 1.40843 2.79044 1.25582 3.33526C0.631237 6.87914 0.388948 12.2792 1.27297 15.6813C1.4256 16.2261 1.72332 16.7228 2.13649 17.1219C2.54966 17.521 3.06386 17.8086 3.62788 17.956C5.6928 18.5 14.0036 18.5 14.0036 18.5C14.0036 18.5 22.3143 18.5 24.3791 17.956C24.9431 17.8086 25.4573 17.521 25.8705 17.1219C26.2837 16.7228 26.5815 16.2261 26.7341 15.6813C27.3929 12.1324 27.5959 6.73567 26.717 3.3187Z" fill="#FF0000"/>
<path d="M11.45 14.6002L21.65 9.50015L11.45 4.40015V14.6002Z" fill="white"/>
</svg>
